<?xml version="1.0" standalone="no"?>
<!DOCTYPE svg PUBLIC "-//W3C//DTD SVG 20010904//EN"
 "http://www.w3.org/TR/2001/REC-SVG-20010904/DTD/svg10.dtd">
<svg version="1.0" xmlns="http://www.w3.org/2000/svg"
 width="261.000000pt" height="241.000000pt" viewBox="0 0 261.000000 241.000000"
 preserveAspectRatio="xMidYMid meet">
<metadata>
Created by potrace 1.16, written by Peter Selinger 2001-2019
</metadata>
<g transform="translate(0.000000,241.000000) scale(0.100000,-0.100000)"
fill="#000000" stroke="none">
<path d="M0 1205 l0 -1205 1305 0 1305 0 0 1205 0 1205 -1305 0 -1305 0 0
-1205z m885 991 c165 -44 287 -166 330 -333 74 -284 -144 -563 -440 -563 -131
0 -242 47 -332 142 -84 89 -123 189 -123 314 0 208 147 396 347 443 58 14 162
12 218 -3z m1355 -436 c0 -247 -3 -450 -7 -450 -4 0 -106 98 -225 217 l-218
218 0 -223 0 -222 -230 0 -230 0 0 230 0 230 222 0 223 0 -218 218 c-119 119
-217 221 -217 225 0 4 203 7 450 7 l450 0 0 -450z m-1275 -603 c279 -133 353
-489 148 -718 -77 -85 -207 -149 -304 -149 l-39 0 0 225 0 225 -225 0 -225 0
0 39 c0 94 63 224 144 299 98 90 192 124 333 118 81 -3 101 -8 168 -39z m975
-107 l0 -150 150 0 150 0 0 -155 0 -155 -150 0 -150 0 0 -150 0 -150 -155 0
-155 0 0 150 0 150 -150 0 -150 0 0 155 0 155 150 0 150 0 0 150 0 150 155 0
155 0 0 -150z"/>
<path d="M689 1986 c-49 -17 -88 -49 -121 -98 -33 -48 -42 -90 -36 -163 16
-198 271 -289 413 -147 49 49 66 83 72 148 9 83 -12 140 -71 199 -72 72 -166
94 -257 61z"/>
<path d="M1790 1975 l0 -215 215 0 c118 0 215 3 215 8 0 9 -413 422 -423 422
-4 0 -7 -97 -7 -215z"/>
<path d="M1632 748 l3 -143 148 -3 147 -3 0 146 0 145 -150 0 -151 0 3 -142z"/>
</g>
</svg>
